<mxfile host="www.draw.io" modified="2020-01-09T00:42:05.562Z" agent="Mozilla/5.0 (Windows NT 10.0; Win64; x64) AppleWebKit/537.36 (KHTML, like Gecko) Chrome/79.0.3945.88 Safari/537.36" etag="uJDzsjWLX3Qnv8M2KLJS" version="12.4.9" type="github">
  <diagram id="mQoB5q4h74CBtNllqwuD" name="Page-1">
    <mxGraphModel dx="1851" dy="1703" grid="1" gridSize="10" guides="1" tooltips="1" connect="1" arrows="1" fold="1" page="1" pageScale="1" pageWidth="827" pageHeight="1169" math="0" shadow="0">
      <root>
        <mxCell id="0"/>
        <mxCell id="1" parent="0"/>
        <mxCell id="iQv2Gbv3eOI6B7ItpzMf-1" value="S0" style="ellipse;whiteSpace=wrap;html=1;" vertex="1" parent="1">
          <mxGeometry width="40" height="40" as="geometry"/>
        </mxCell>
        <mxCell id="iQv2Gbv3eOI6B7ItpzMf-2" value="S1" style="ellipse;whiteSpace=wrap;html=1;" vertex="1" parent="1">
          <mxGeometry x="80" width="40" height="40" as="geometry"/>
        </mxCell>
        <mxCell id="iQv2Gbv3eOI6B7ItpzMf-3" value="S2" style="ellipse;whiteSpace=wrap;html=1;" vertex="1" parent="1">
          <mxGeometry x="160" width="40" height="40" as="geometry"/>
        </mxCell>
        <mxCell id="iQv2Gbv3eOI6B7ItpzMf-4" value="" style="curved=1;endArrow=classic;html=1;exitX=0.5;exitY=0;exitDx=0;exitDy=0;entryX=0.5;entryY=0;entryDx=0;entryDy=0;" edge="1" parent="1" source="iQv2Gbv3eOI6B7ItpzMf-1" target="iQv2Gbv3eOI6B7ItpzMf-2">
          <mxGeometry width="50" height="50" relative="1" as="geometry">
            <mxPoint x="10" y="110" as="sourcePoint"/>
            <mxPoint x="60" y="60" as="targetPoint"/>
            <Array as="points">
              <mxPoint x="60" y="-40"/>
            </Array>
          </mxGeometry>
        </mxCell>
        <mxCell id="iQv2Gbv3eOI6B7ItpzMf-5" value="" style="curved=1;endArrow=classic;html=1;exitX=0.5;exitY=0;exitDx=0;exitDy=0;entryX=0.5;entryY=0;entryDx=0;entryDy=0;" edge="1" parent="1">
          <mxGeometry width="50" height="50" relative="1" as="geometry">
            <mxPoint x="100" as="sourcePoint"/>
            <mxPoint x="180" as="targetPoint"/>
            <Array as="points">
              <mxPoint x="140" y="-40"/>
            </Array>
          </mxGeometry>
        </mxCell>
        <mxCell id="iQv2Gbv3eOI6B7ItpzMf-7" value="1" style="text;html=1;strokeColor=none;fillColor=none;align=center;verticalAlign=middle;whiteSpace=wrap;rounded=0;" vertex="1" parent="1">
          <mxGeometry x="50" y="-40" width="20" height="20" as="geometry"/>
        </mxCell>
        <mxCell id="iQv2Gbv3eOI6B7ItpzMf-8" value="0" style="text;html=1;strokeColor=none;fillColor=none;align=center;verticalAlign=middle;whiteSpace=wrap;rounded=0;" vertex="1" parent="1">
          <mxGeometry x="130" y="-40" width="20" height="20" as="geometry"/>
        </mxCell>
        <mxCell id="iQv2Gbv3eOI6B7ItpzMf-9" value="" style="curved=1;endArrow=classic;html=1;exitX=0.5;exitY=0;exitDx=0;exitDy=0;entryX=0.5;entryY=0;entryDx=0;entryDy=0;" edge="1" parent="1">
          <mxGeometry width="50" height="50" relative="1" as="geometry">
            <mxPoint x="180" y="40" as="sourcePoint"/>
            <mxPoint x="100" y="40" as="targetPoint"/>
            <Array as="points">
              <mxPoint x="140" y="80"/>
            </Array>
          </mxGeometry>
        </mxCell>
        <mxCell id="iQv2Gbv3eOI6B7ItpzMf-10" value="1" style="text;html=1;strokeColor=none;fillColor=none;align=center;verticalAlign=middle;whiteSpace=wrap;rounded=0;" vertex="1" parent="1">
          <mxGeometry x="50" y="40" width="20" height="20" as="geometry"/>
        </mxCell>
        <mxCell id="iQv2Gbv3eOI6B7ItpzMf-14" value="0" style="text;html=1;strokeColor=none;fillColor=none;align=center;verticalAlign=middle;whiteSpace=wrap;rounded=0;" vertex="1" parent="1">
          <mxGeometry x="130" y="40" width="20" height="20" as="geometry"/>
        </mxCell>
        <mxCell id="iQv2Gbv3eOI6B7ItpzMf-11" value="" style="curved=1;endArrow=classic;html=1;exitX=0.5;exitY=1;exitDx=0;exitDy=0;entryX=0.5;entryY=0;entryDx=0;entryDy=0;" edge="1" parent="1" source="iQv2Gbv3eOI6B7ItpzMf-3">
          <mxGeometry width="50" height="50" relative="1" as="geometry">
            <mxPoint x="100" y="40" as="sourcePoint"/>
            <mxPoint x="20" y="40" as="targetPoint"/>
            <Array as="points">
              <mxPoint x="110" y="110"/>
            </Array>
          </mxGeometry>
        </mxCell>
        <mxCell id="iQv2Gbv3eOI6B7ItpzMf-12" value="1" style="text;html=1;strokeColor=none;fillColor=none;align=center;verticalAlign=middle;whiteSpace=wrap;rounded=0;" vertex="1" parent="1">
          <mxGeometry x="90" y="79" width="20" height="20" as="geometry"/>
        </mxCell>
        <mxCell id="iQv2Gbv3eOI6B7ItpzMf-16" value="" style="curved=1;endArrow=classic;html=1;exitX=0.5;exitY=0;exitDx=0;exitDy=0;entryX=0.5;entryY=0;entryDx=0;entryDy=0;" edge="1" parent="1">
          <mxGeometry width="50" height="50" relative="1" as="geometry">
            <mxPoint x="100" y="39" as="sourcePoint"/>
            <mxPoint x="20" y="39" as="targetPoint"/>
            <Array as="points">
              <mxPoint x="60" y="79"/>
            </Array>
          </mxGeometry>
        </mxCell>
        <mxCell id="iQv2Gbv3eOI6B7ItpzMf-17" value="" style="curved=1;endArrow=classic;html=1;exitX=0.5;exitY=0;exitDx=0;exitDy=0;" edge="1" parent="1">
          <mxGeometry width="50" height="50" relative="1" as="geometry">
            <mxPoint x="10" as="sourcePoint"/>
            <mxPoint x="10" as="targetPoint"/>
            <Array as="points">
              <mxPoint x="-10" y="-30"/>
              <mxPoint x="20" y="-30"/>
            </Array>
          </mxGeometry>
        </mxCell>
        <mxCell id="iQv2Gbv3eOI6B7ItpzMf-18" value="0" style="text;html=1;strokeColor=none;fillColor=none;align=center;verticalAlign=middle;whiteSpace=wrap;rounded=0;" vertex="1" parent="1">
          <mxGeometry x="-10" y="-50" width="20" height="20" as="geometry"/>
        </mxCell>
      </root>
    </mxGraphModel>
  </diagram>
</mxfile>
